<?xml version="1.0" encoding="UTF-8" standalone="no"?>
<!-- Created with Inkscape (http://www.inkscape.org/) -->

<svg
   width="63.462795mm"
   height="42.88007mm"
   viewBox="0 0 63.462795 42.88007"
   version="1.1"
   id="svg7423"
   inkscape:version="1.2.2 (b0a8486, 2022-12-01)"
   sodipodi:docname="leaderboard-logo.svg"
   inkscape:export-filename="leaderboard-logo-2.png"
   inkscape:export-xdpi="600.35175"
   inkscape:export-ydpi="600.35175"
   xmlns:inkscape="http://www.inkscape.org/namespaces/inkscape"
   xmlns:sodipodi="http://sodipodi.sourceforge.net/DTD/sodipodi-0.dtd"
   xmlns="http://www.w3.org/2000/svg"
   xmlns:svg="http://www.w3.org/2000/svg">
  <sodipodi:namedview
     id="namedview7425"
     pagecolor="#505050"
     bordercolor="#eeeeee"
     borderopacity="1"
     inkscape:showpageshadow="0"
     inkscape:pageopacity="0"
     inkscape:pagecheckerboard="0"
     inkscape:deskcolor="#505050"
     inkscape:document-units="mm"
     showgrid="false"
     inkscape:zoom="2.8284271"
     inkscape:cx="61.341514"
     inkscape:cy="112.96031"
     inkscape:window-width="1850"
     inkscape:window-height="1136"
     inkscape:window-x="70"
     inkscape:window-y="27"
     inkscape:window-maximized="1"
     inkscape:current-layer="layer1" />
  <defs
     id="defs7420">
    <clipPath
       clipPathUnits="userSpaceOnUse"
       id="clipPath6388-7">
      <path
         d="M 0,121.698 H 179.895 V 0 H 0 Z"
         id="path6386-4" />
    </clipPath>
  </defs>
  <g
     inkscape:label="Layer 1"
     inkscape:groupmode="layer"
     id="layer1"
     transform="translate(-1.4069816e-4)">
    <path
       id="path9216-2"
       style="color:#000000;display:inline;fill:#2794d8;stroke-width:1.41732;stroke-linejoin:round;stroke-dasharray:none;-inkscape-stroke:none"
       d="m -37.583884,-120.531 c 14.747329,0 27.758558,7.32231 35.7099629,18.49219 h -8.4184579 c -6.811022,-7.32269 -16.5128,-11.9209 -27.291505,-11.9209 -17.989568,0 -33.024953,12.76662 -36.525881,29.723145 l -0.487793,3.396973 c 3.899904,1.715912 7.349499,4.161553 10.211427,7.167481 l -4.64795,4.647949 c -0.028,-0.025 -0.05264,-0.05164 -0.07764,-0.07764 -4.54788,-4.80888 -10.973313,-7.803223 -18.098145,-7.803223 -13.756744,0 -24.925784,11.169724 -24.925784,24.921388 0,13.594509 10.90722,24.635908 24.439456,24.897951 v 0.01465 h 0.28418 c 0.06811,5.48e-4 0.133907,0.01025 0.202148,0.01025 h 6.75293 c -5.523163,-4.667002 -8.950107,-11.205136 -8.964844,-18.414552 l 6.52002,-0.01318 c 0.01723,8.432212 6.657079,16.085427 16.747559,18.417481 h 2.709961 v 0.0044 h 5.333497 l 4.318359,0.0029 -0.0029,-0.0029 h 8.862305 c 0.0018,0.0045 0.004,0.0087 0.0059,0.01318 l 4.712403,0.01025 c 0.551292,1.706894 1.421529,3.630767 2.797851,5.419922 0.319348,0.415137 0.647027,0.803537 0.977051,1.166016 l -11.380372,-0.0249 -39.38965,-0.0088 c -17.390524,0 -31.492674,-14.105086 -31.492674,-31.492678 0,-17.383568 14.10215,-31.491212 31.492674,-31.491212 1.124976,0 2.233614,0.06125 3.32959,0.177246 l 2.907715,0.459961 0.432129,-2.729004 C -76.424554,-105.51317 -58.75238,-120.531 -37.583884,-120.531 Z m 64.415042,31.437013 c 18.962544,0 34.360842,15.395297 34.360842,34.360841 0,18.963544 -15.398298,34.360842 -34.360842,34.360842 H 10.625591 l -1.1162108,0.05566 -0.2797852,-0.05566 h -9.60937545 v -0.0029 l -1.93066415,-0.0044 c -1.1911295,-1.410418 -3.7623361,-4.091231 -7.6787113,-6.28711 -0.1909151,-0.107044 -0.3804771,-0.208395 -0.5698241,-0.307617 l 10.36816441,0.02344 v 0.0044 H 10.066021 l 0.0293,-0.0029 h 2.676269 c 10.494232,-2.062421 17.573827,-9.891812 17.589845,-18.599122 l 6.52002,0.01318 c -0.01342,7.295969 -3.511476,13.877681 -9.114258,18.543458 l 0.638672,-0.03223 h 0.0029 l 1.262696,-0.06445 c 14.004664,-1.422976 24.950684,-13.265869 24.950684,-27.644533 0,-15.336616 -12.454377,-27.789552 -27.791017,-27.789552 -1.261407,0 -2.49188,0.118985 -3.707519,0.285645 -1.071708,-2.110625 -2.399042,-4.119939 -3.966797,-5.985352 2.469868,-0.565017 5.03673,-0.871582 7.674316,-0.871582 z"
       transform="matrix(-0.35277777,0,0,0.35277777,21.587318,42.520656)" />
    <path
       id="path520"
       style="color:#000000;display:inline;fill:#15c78e;stroke-linejoin:round;-inkscape-stroke:none;fill-opacity:1"
       d="m 21.203498,8.2284383 c -0.869284,1.6394127 -1.419815,3.3953667 -1.65778,5.1805627 -0.926172,-0.68648 -1.946286,-1.24011 -3.030306,-1.643311 -0.641055,0.64352 -1.174899,1.352532 -1.596285,2.105815 0.0035,9.87e-4 0.0069,0.0021 0.01033,0.0031 -1.593637,2.896104 -1.411805,6.365639 0.582394,9.131226 2.197669,3.047764 6.096979,4.858022 10.331152,5.005379 1.890681,1.357493 4.039617,2.249437 6.273002,2.651001 -9e-4,0.04208 -0.0015,0.0886 -0.0026,0.128674 -0.01808,0.673444 -0.222031,1.292564 -0.525549,1.716691 -0.303518,0.42413 -0.659969,0.669592 -1.203027,0.744141 -1.837887,0.2523 -3.283087,0.28816 -5.22087,1.599902 -3.687362,2.496089 -3.741553,6.935169 -3.695382,8.027417 h 1.367359 1.137398 l 22.500435,10e-4 h 1.106393 l 0.283186,-0.0031 -0.01395,-1.250052 C 47.830317,39.88047 47.267115,38.19338 46.253132,36.79362 h -0.03204 c -0.0026,-0.0039 -0.0051,-0.008 -0.0078,-0.01189 h -3.367753 c 0.07084,0.0545 0.140097,0.110906 0.208256,0.168465 l 0.67076,0.702283 c 0.09677,0.101647 0.189798,0.206088 0.278536,0.313676 0.553737,0.755141 0.929381,1.645853 1.072803,2.608626 l -20.878312,0.0047 c 0.292908,-1.233211 0.943221,-2.692607 2.368847,-3.657658 1.532052,-1.037092 2.164721,-0.917527 4.157886,-1.191141 1.229606,-0.168797 2.251389,-0.865717 2.896981,-1.767851 0.636278,-0.889123 0.950492,-1.9607 0.988053,-3.057178 2.835832,0.04631 5.703771,-0.685107 8.265645,-2.241724 L 41.577965,26.52913 c -5.279306,3.207748 -12.068678,2.247075 -16.251721,-2.298568 -3.49755,-3.800724 -4.346193,-9.209684 -2.406055,-13.800191 l 5.798613,-0.0067 -0.0041,-2.1952147 z m -3.969267,6.6409387 c 0.823387,0.489426 1.573498,1.099816 2.224154,1.814876 0.234307,2.958386 1.316222,5.853269 3.224093,8.292517 -2.186413,-0.661925 -4.025558,-1.884517 -5.141289,-3.431832 -1.537332,-2.131998 -1.639648,-4.521097 -0.306958,-6.675561 z" />
  </g>
</svg>
