<?xml version="1.0" encoding="UTF-8" standalone="no"?>
<!-- Created with Inkscape (http://www.inkscape.org/) -->

<svg
   version="1.1"
   id="svg1660"
   width="523.72217"
   height="168.96938"
   viewBox="0 0 523.72214 168.96937"
   sodipodi:docname="poweredby.svg"
   inkscape:version="1.2.2 (b0a8486, 2022-12-01)"
   xmlns:inkscape="http://www.inkscape.org/namespaces/inkscape"
   xmlns:sodipodi="http://sodipodi.sourceforge.net/DTD/sodipodi-0.dtd"
   xmlns="http://www.w3.org/2000/svg"
   xmlns:svg="http://www.w3.org/2000/svg">
  <defs
     id="defs1664">
    <rect
       x="70.554783"
       y="-91.946368"
       width="339.80554"
       height="41.824371"
       id="rect1020" />
    <clipPath
       clipPathUnits="userSpaceOnUse"
       id="clipPath1676">
      <path
         d="M 0,800 H 800 V 0 H 0 Z"
         id="path1674" />
    </clipPath>
  </defs>
  <sodipodi:namedview
     id="namedview1662"
     pagecolor="#505050"
     bordercolor="#eeeeee"
     borderopacity="1"
     inkscape:showpageshadow="0"
     inkscape:pageopacity="0"
     inkscape:pagecheckerboard="0"
     inkscape:deskcolor="#505050"
     showgrid="false"
     inkscape:zoom="1.2515788"
     inkscape:cx="37.952065"
     inkscape:cy="112.25821"
     inkscape:window-width="1850"
     inkscape:window-height="1136"
     inkscape:window-x="70"
     inkscape:window-y="27"
     inkscape:window-maximized="1"
     inkscape:current-layer="g1668">
    <inkscape:page
       x="0"
       y="0"
       id="page1666"
       width="523.72217"
       height="168.96938"
       inkscape:export-filename="poweredby.png"
       inkscape:export-xdpi="96"
       inkscape:export-ydpi="96" />
  </sodipodi:namedview>
  <g
     id="g1668"
     inkscape:groupmode="layer"
     inkscape:label="Page 1"
     transform="matrix(1.3333333,0,0,-1.3333333,-245.21083,537.44623)">
    <g
       aria-label="POWERED BY"
       transform="matrix(1.2996564,0,0,-1.2996564,678.07743,446.44769)"
       id="text1390-7"
       style="font-weight:bold;font-size:26.9302px;font-family:Sawasdee;-inkscape-font-specification:'Sawasdee, Bold';white-space:pre;inline-size:229.564;display:inline;stroke-width:3.27161;stroke-linejoin:round;stop-color:#000000;fill:#586674;fill-opacity:1">
      <path
         d="M -313.66845,54.044765 V 34.412544 h 7.29798 q 2.26172,0 3.83966,1.604241 1.57794,1.59109 1.57794,3.839657 0,2.235417 -1.56479,3.826508 -1.56479,1.591091 -3.78706,1.591091 h -5.27296 v 8.770724 z m 2.09077,-10.835197 h 5.27296 q 1.3281,0 2.28801,-0.973064 0.97307,-0.986214 0.97307,-2.380062 0,-1.420147 -0.97307,-2.41951 -0.97306,-0.999363 -2.35376,-0.999363 h -5.20721 z"
         style="fill:#586674;fill-opacity:1"
         id="path2017" />
      <path
         d="m -278.76964,40.356123 q 0.81527,1.854082 0.81527,3.892256 0,2.038174 -0.81527,3.892256 -0.80212,1.840931 -2.18282,3.169032 -1.36755,1.328101 -3.26108,2.117071 -1.88038,0.788971 -3.94485,0.788971 -2.07763,0 -3.98431,-0.788971 -1.89353,-0.78897 -3.27422,-2.117071 -1.36755,-1.328101 -2.18282,-3.169032 -0.81527,-1.854082 -0.81527,-3.892256 0,-2.038174 0.81527,-3.892256 0.81527,-1.854081 2.18282,-3.195331 1.38069,-1.34125 3.27422,-2.130221 1.90668,-0.788971 3.98431,-0.788971 2.06447,0 3.94485,0.788971 1.89353,0.788971 3.26108,2.130221 1.3807,1.34125 2.18282,3.195331 z m -17.54145,3.892256 q 0,1.61739 0.63117,3.090135 0.64433,1.472746 1.72259,2.551006 1.09141,1.06511 2.6036,1.696287 1.52535,0.631176 3.19534,0.631176 2.20911,0 4.07634,-1.06511 1.88038,-1.07826 2.97179,-2.906042 1.09141,-1.840932 1.09141,-3.997452 0,-2.169669 -1.09141,-4.010601 -1.09141,-1.840932 -2.97179,-2.906042 -1.86723,-1.065111 -4.07634,-1.065111 -1.66999,0 -3.18219,0.631177 -1.51219,0.631176 -2.6036,1.696287 -1.09141,1.06511 -1.73574,2.551005 -0.63117,1.472746 -0.63117,3.103285 z"
         style="fill:#586674;fill-opacity:1"
         id="path2019" />
      <path
         d="m -277.3232,34.412544 h 2.11707 l 5.32556,13.649194 5.53594,-13.846437 5.56224,13.846437 5.25981,-13.649194 h 2.20912 l -7.49522,19.829464 -5.48335,-13.74124 -5.4965,13.74124 z"
         style="fill:#586674;fill-opacity:1"
         id="path2021" />
      <path
         d="m -237.83521,41.710523 v 2.025025 h -9.21781 v 8.284193 h 9.98048 v 2.025024 h -12.07125 V 34.412544 h 12.137 v 2.025025 h -10.04623 v 5.272954 z"
         style="fill:#586674;fill-opacity:1"
         id="path2023" />
      <path
         d="M -233.91666,54.044765 V 34.412544 h 7.29798 q 2.26172,0 3.83966,1.604241 1.57794,1.59109 1.57794,3.839657 0,1.788334 -1.03881,3.208481 -1.02566,1.406998 -2.66935,1.946128 l 5.08886,9.033714 h -2.38006 l -4.94422,-8.797023 h -4.68122 v 8.797023 z m 2.09078,-10.835197 h 5.27295 q 1.3281,0 2.28802,-0.973064 0.97306,-0.986214 0.97306,-2.380062 0,-1.420147 -0.97306,-2.41951 -0.97307,-0.999363 -2.35377,-0.999363 h -5.2072 z"
         style="fill:#586674;fill-opacity:1"
         id="path2025" />
      <path
         d="m -206.40788,41.710523 v 2.025025 h -9.21781 v 8.284193 h 9.98048 v 2.025024 h -12.07125 V 34.412544 h 12.137 v 2.025025 h -10.04623 v 5.272954 z"
         style="fill:#586674;fill-opacity:1"
         id="path2027" />
      <path
         d="m -200.39855,52.019741 h 2.26171 q 2.23542,0 4.10265,-1.012513 1.86723,-1.025662 2.95864,-2.813995 1.09141,-1.788334 1.09141,-3.944854 0,-2.169669 -1.09141,-3.958003 -1.09141,-1.801483 -2.95864,-2.827145 -1.86723,-1.025662 -4.10265,-1.025662 h -2.26171 z m -2.09077,2.025024 V 34.412544 h 4.35248 q 2.77455,0 5.11516,1.301802 2.35377,1.288652 3.72132,3.550368 1.38069,2.261716 1.38069,4.983665 0,2.7088 -1.38069,4.970516 -1.36755,2.248566 -3.72132,3.537218 -2.34061,1.288652 -5.11516,1.288652 z"
         style="fill:#586674;fill-opacity:1"
         id="path2029" />
      <path
         d="m -173.08701,52.019741 h 5.1546 q 1.93298,0 3.24793,-1.170307 1.31496,-1.170307 1.31496,-2.761397 0,-1.591091 -1.31496,-2.748248 -1.31495,-1.157158 -3.24793,-1.157158 h -5.1546 z m 8.24474,-12.66298 v -0.0263 q 0,-1.144008 -0.97306,-2.011876 -0.95992,-0.881017 -2.36692,-0.881017 h -4.90476 v 5.746337 h 4.90476 q 1.4333,0 2.38007,-0.841569 0.95991,-0.854718 0.95991,-1.985576 z m -3.26108,-4.944217 q 2.20912,0 3.78706,1.459596 1.59109,1.446446 1.59109,3.484621 0,1.07826 -0.48653,2.038174 -0.48653,0.946765 -1.34125,1.61739 1.49904,0.762672 2.38006,2.117071 0.89417,1.341251 0.89417,2.958641 0,1.643689 -0.92047,3.024387 -0.90731,1.380699 -2.43266,2.15652 -1.52534,0.775821 -3.30053,0.775821 h -7.24538 V 34.412544 Z"
         style="fill:#586674;fill-opacity:1"
         id="path2031" />
      <path
         d="m -161.13411,34.412544 h 2.40636 l 5.89099,9.073163 5.86468,-9.073163 h 2.40636 l -7.24538,11.216534 v 8.415687 h -2.09078 v -8.415687 z"
         style="fill:#586674;fill-opacity:1"
         id="path2033" />
    </g>
    <g
       id="g1670">
      <g
         id="g1531"
         transform="translate(45.968356,23.386943)"
         style="fill:#586674;fill-opacity:1">
        <g
           id="g1678"
           transform="translate(291.5303,297.1562)"
           style="fill:#586674;fill-opacity:1">
          <path
             d="m 0,0 c -1.717,-1.104 -4.354,-1.656 -7.667,-2.023 -3.986,-0.43 -6.438,-1.29 -6.438,-3.62 0,-1.778 2.084,-3.004 5.335,-3.004 4.845,0 8.77,1.655 8.77,5.704 z m 0.245,-12.266 c -2.085,-2.208 -5.274,-3.557 -9.69,-3.557 -6.684,0 -12.817,3.372 -12.817,10.242 0,7.113 5.949,8.953 12.94,9.567 5.274,0.491 9.014,1.103 9.014,3.679 0,1.657 -2.146,3.005 -5.763,3.005 -2.884,0 -6.195,-1.288 -6.931,-3.985 h -8.095 c 0.797,6.009 6.562,10.487 14.841,10.487 12.818,0 13.798,-8.279 13.798,-10.795 v -16.436 c 0,-1.533 0.491,-3.924 0.92,-5.15 h -7.42 c -0.368,0.797 -0.612,1.778 -0.797,2.943"
             style="fill:#586674;fill-opacity:1;fill-rule:nonzero;stroke:none"
             id="path1680" />
        </g>
        <path
           d="m 312.425,281.947 h -8.096 v 45.628 h 8.096 z"
           style="fill:#586674;fill-opacity:1;fill-rule:nonzero;stroke:none"
           id="path1682" />
        <g
           id="g1684"
           transform="translate(332.8467,281.2119)"
           style="fill:#586674;fill-opacity:1">
          <path
             d="m 0,0 c -9.506,0 -16.312,7.358 -16.312,16.496 0,9.138 6.806,16.62 16.312,16.62 7.605,0 13.37,-4.293 15.209,-11.407 H 6.562 C 5.459,23.855 2.945,25.695 0,25.695 c -4.476,0 -8.095,-4.169 -8.095,-9.26 0,-4.968 3.619,-9.077 8.095,-9.077 3.004,0 5.582,1.839 6.624,4.049 h 8.647 C 13.432,4.23 7.667,0 0,0"
             style="fill:#586674;fill-opacity:1;fill-rule:nonzero;stroke:none"
             id="path1686" />
        </g>
        <g
           id="g1688"
           transform="translate(374.0625,301.2041)"
           style="fill:#586674;fill-opacity:1">
          <path
             d="M 0,0 C -0.981,3.681 -4.048,6.01 -7.911,6.01 -11.592,6.01 -14.535,3.681 -15.7,0 Z m -15.823,-6.624 c 1.043,-3.863 4.11,-6.254 7.912,-6.254 2.698,0 5.335,1.164 6.683,3.679 H 7.421 C 5.581,-15.64 0,-19.992 -7.85,-19.992 c -8.893,0 -16.191,7.358 -16.191,16.496 0,9.138 7.298,16.62 16.191,16.62 9.321,0 17.049,-7.237 15.883,-19.748 z"
             style="fill:#586674;fill-opacity:1;fill-rule:nonzero;stroke:none"
             id="path1690" />
        </g>
        <g
           id="g1692"
           transform="translate(399.0264,281.2119)"
           style="fill:#586674;fill-opacity:1">
          <path
             d="m 0,0 c -8.033,0 -13.982,4.23 -14.964,11.037 h 8.219 C -5.642,8.339 -2.391,7.358 0,7.358 c 3.251,0 5.704,0.981 5.704,2.821 0,1.78 -1.103,2.515 -6.624,3.374 -5.642,0.858 -13.184,2.391 -13.184,9.444 0,4.968 4.354,10.119 13.492,10.119 7.236,0 12.633,-3.925 13.675,-9.873 H 4.66 c -0.489,1.471 -2.267,2.636 -5.272,2.636 -3.742,0 -5.275,-1.348 -5.275,-2.515 0,-1.655 2.33,-2.207 6.255,-2.82 C 8.218,19.257 13.859,17.54 13.859,10.67 13.859,4.415 8.097,0 0,0"
             style="fill:#586674;fill-opacity:1;fill-rule:nonzero;stroke:none"
             id="path1694" />
        </g>
        <g
           id="g1696"
           transform="translate(418.4229,315.0801)"
           style="fill:#586674;fill-opacity:1">
          <path
             d="M 0,0 V -1.509 H -4.126 V -4.916 H 0 v -28.182 h 3.468 v 28.182 h 8.136 v 3.407 H 3.468 v 1.333 c 0,5.6 2.512,8.279 7.484,7.992 l 0.652,-0.041 v 3.223 l -0.559,0.048 C 4.233,11.669 0,7.3 0,0"
             style="fill:#586674;fill-opacity:1;fill-rule:nonzero;stroke:none"
             id="path1698" />
        </g>
        <path
           d="m 433.575,281.982 h 3.408 v 45.093 h -3.408 z"
           style="fill:#586674;fill-opacity:1;fill-rule:nonzero;stroke:none"
           id="path1700" />
        <path
           d="m 442.299,317.477 h 3.411 v 6.646 h -3.411 z"
           style="fill:#2794d8;fill-opacity:1;fill-rule:nonzero;stroke:none"
           id="path1702" />
        <path
           d="m 442.299,281.982 h 3.411 v 31.589 h -3.411 z"
           style="fill:#586674;fill-opacity:1;fill-rule:nonzero;stroke:none"
           id="path1704" />
        <g
           id="g1706"
           transform="translate(465.2002,284.6836)"
           style="fill:#586674;fill-opacity:1">
          <path
             d="m 0,0 c -6.813,0 -12.355,5.832 -12.355,13.007 0,7.265 5.542,13.177 12.355,13.177 7.124,0 12.297,-5.542 12.297,-13.177 C 12.297,5.47 7.124,0 0,0 M 12.297,23.357 C 9.5,27.337 5.048,29.654 0,29.654 c -8.692,0 -15.765,-7.467 -15.765,-16.647 0,-9.087 7.073,-16.476 15.765,-16.476 5.038,0 9.493,2.305 12.297,6.258 v -4.052 c 0,-7.828 -4.78,-12.887 -12.179,-12.887 -5.526,0 -9.636,2.687 -11.269,7.372 l -0.145,0.413 h -3.554 l 0.232,-0.789 c 1.903,-6.514 7.413,-10.406 14.736,-10.406 9.323,0 15.588,6.549 15.588,16.297 v 30.151 h -3.409 z"
             style="fill:#586674;fill-opacity:1;fill-rule:nonzero;stroke:none"
             id="path1708" />
        </g>
        <g
           id="g1710"
           transform="translate(500.1631,314.3379)"
           style="fill:#586674;fill-opacity:1">
          <path
             d="m 0,0 c -4.206,0 -7.883,-1.655 -10.349,-4.599 v 17.336 h -3.411 v -45.092 h 3.411 v 18.952 c 0,5.73 4.426,10.052 10.292,10.052 6.22,0 9.644,-3.57 9.644,-10.052 v -18.952 h 3.411 v 18.952 C 12.998,-5.136 8.017,0 0,0"
             style="fill:#586674;fill-opacity:1;fill-rule:nonzero;stroke:none"
             id="path1712" />
        </g>
        <g
           id="g1714"
           transform="translate(530.7314,310.1641)"
           style="fill:#586674;fill-opacity:1">
          <path
             d="m 0,0 v 3.407 h -8.194 v 6.484 h -3.41 V 3.407 H -15.73 V 0 h 4.126 v -17.074 c 0,-3.31 0.887,-6.097 2.564,-8.06 1.733,-2.028 4.243,-3.103 7.256,-3.103 0.396,0 0.807,0.02 1.224,0.058 L 0,-28.131 v 3.206 l -0.64,-0.026 c -0.172,-0.008 -0.34,-0.012 -0.508,-0.012 -5.824,0 -7.046,4.293 -7.046,7.889 V 0 Z"
             style="fill:#586674;fill-opacity:1;fill-rule:nonzero;stroke:none"
             id="path1716" />
        </g>
      </g>
      <path
         d="m -270.32416,-132.8233 c 0,-3.80393 -1.27734,-7.24137 -3.50951,-9.5854 -0.0871,-0.10392 -0.176,-0.20689 -0.26306,-0.31174 -4.87203,-5.19078 -12.16114,-7.83017 -21.76338,-7.87885 -7.66308,-0.0393 -19.09826,1.49967 -25.38291,4.21909 7.40893,-7.35229 1.57128,-13.19789 1.57128,-13.19789 -0.52657,0.69367 -2.01687,1.79454 -4.07446,3.13366 -7.52828,3.964 -19.39454,7.03401 -19.39454,7.03401 l -7.13745,8.24628 -5.79738,3.35693 c -9.47354,5.39907 -13.97909,8.14238 -21.94594,15.5424 -8.81171,8.17375 -13.29385,16.79447 -13.38932,25.702122 0.008,0.175521 0.0159,0.343087 0.0238,0.510185 -0.13527,8.237858 7.13697,17.192784 19.26629,19.386113 9.73752,1.75429 -7.80678,-10.822017 -0.8369,-26.72295 4.56172,8.55707 14.56135,13.564846 12.0811,6.683425 -2.19286,-6.133455 -1.63447,-13.070585 1.40371,-18.581515 4.11472,7.55262 12.21731,11.23624 9.51333,4.82524 -6.53881,-15.52697 20.84553,-29.83276 21.57148,-30.20019 0,0 -1.49077,1.45146 -4.00285,4.39368 11.38744,-3.2928 23.37258,0.55933 26.41122,7.77496 2.15449,5.11963 4.64924,-1.30683 2.98248,-7.9823 4.76954,1.60263 8.85149,5.3752 10.86088,10.17563 2.27431,5.38268 5.43932,-2.96563 3.50155,-10.46209 12.69566,5.58255 9.1707,22.45658 13.94773,16.16398 3.01383,-3.97944 4.36278,-8.30946 4.36278,-12.22478"
         style="fill:#2794d8;fill-opacity:1;fill-rule:nonzero;stroke:none;stroke-width:0.46806"
         id="path1720"
         transform="translate(575.31895,435.93574)" />
    </g>
  </g>
</svg>
