<?xml version="1.0" encoding="UTF-8" standalone="no"?>
<!-- Created with Inkscape (http://www.inkscape.org/) -->

<svg
   width="399.74408"
   height="136.92668"
   viewBox="0 0 105.76562 36.228518"
   version="1.1"
   id="svg5"
   xml:space="preserve"
   inkscape:version="1.2.2 (b0a8486, 2022-12-01)"
   sodipodi:docname="server.svg"
   xmlns:inkscape="http://www.inkscape.org/namespaces/inkscape"
   xmlns:sodipodi="http://sodipodi.sourceforge.net/DTD/sodipodi-0.dtd"
   xmlns="http://www.w3.org/2000/svg"
   xmlns:svg="http://www.w3.org/2000/svg"><sodipodi:namedview
     id="namedview7"
     pagecolor="#505050"
     bordercolor="#eeeeee"
     borderopacity="1"
     inkscape:showpageshadow="0"
     inkscape:pageopacity="0"
     inkscape:pagecheckerboard="0"
     inkscape:deskcolor="#505050"
     inkscape:document-units="mm"
     showgrid="false"
     inkscape:zoom="1.1893044"
     inkscape:cx="129.90787"
     inkscape:cy="152.61021"
     inkscape:window-width="1850"
     inkscape:window-height="1136"
     inkscape:window-x="70"
     inkscape:window-y="27"
     inkscape:window-maximized="1"
     inkscape:current-layer="layer1" /><defs
     id="defs2" /><g
     inkscape:label="Layer 1"
     inkscape:groupmode="layer"
     id="layer1"
     transform="translate(-12.609375,-47.130859)"><path
       style="color:#000000;fill:#2794d8;stroke-linejoin:round;-inkscape-stroke:none;fill-opacity:1"
       d="m 19.974609,47.130859 c -4.022926,0 -7.365234,3.344261 -7.365234,7.367188 v 21.49414 c 0,4.022927 3.342308,7.367188 7.365234,7.367188 h 91.035161 c 4.02292,0 7.36523,-3.344261 7.36523,-7.367188 v -21.49414 c 0,-4.022927 -3.34231,-7.367188 -7.36523,-7.367188 z m 0,6.701172 h 91.035161 c 0.42702,0 0.66601,0.238989 0.66601,0.666016 v 21.49414 c 0,0.427028 -0.23899,0.667969 -0.66601,0.667969 H 19.974609 c -0.427027,0 -0.666015,-0.240941 -0.666015,-0.667969 v -21.49414 c 0,-0.427027 0.238988,-0.666016 0.666015,-0.666016 z"
       id="rect996" /><path
       style="color:#000000;fill:#15c78e;stroke-linejoin:round;-inkscape-stroke:none;fill-opacity:1"
       d="m 34.359375,56.216797 c -4.94734,0 -9.029297,4.081929 -9.029297,9.029297 0,4.947367 4.081957,9.029297 9.029297,9.029297 4.94734,0 9.03125,-4.08193 9.03125,-9.029297 0,-4.947368 -4.08391,-9.029297 -9.03125,-9.029297 z m 0,6.699219 c 1.326608,0 2.330078,1.003858 2.330078,2.330078 0,1.32622 -1.00347,2.330078 -2.330078,2.330078 -1.326608,0 -2.330078,-1.003858 -2.330078,-2.330078 0,-1.32622 1.00347,-2.330078 2.330078,-2.330078 z"
       id="path1050-6" /><g
       id="g1378"
       transform="translate(0.26488799,0.07914495)"><rect
         style="fill:#15c78e;fill-opacity:1;stroke:none;stroke-width:6.7;stroke-linecap:square;stroke-linejoin:round;stroke-dasharray:none;stop-color:#000000"
         id="rect1415"
         width="10.002384"
         height="6.6999998"
         x="71.073402"
         y="56.987747"
         ry="0.82926947" /><rect
         style="fill:#15c78e;fill-opacity:1;stroke:none;stroke-width:6.7;stroke-linecap:square;stroke-linejoin:round;stroke-dasharray:none;stop-color:#000000"
         id="rect1410"
         width="10.002384"
         height="6.6999998"
         x="83.132645"
         y="56.987747"
         ry="0.82926947" /><rect
         style="fill:#15c78e;fill-opacity:1;stroke:none;stroke-width:6.7;stroke-linecap:square;stroke-linejoin:round;stroke-dasharray:none;stop-color:#000000"
         id="rect1405"
         width="10.002384"
         height="6.6999998"
         x="95.191887"
         y="56.987747"
         ry="0.82926947" /><rect
         style="fill:#15c78e;fill-opacity:1;stroke:none;stroke-width:6.7;stroke-linecap:square;stroke-linejoin:round;stroke-dasharray:none;stop-color:#000000"
         id="rect1400"
         width="10.002384"
         height="6.6999998"
         x="95.191887"
         y="66.64502"
         ry="0.82926947" /><rect
         style="fill:#15c78e;fill-opacity:1;stroke:none;stroke-width:6.7;stroke-linecap:square;stroke-linejoin:round;stroke-dasharray:none;stop-color:#000000"
         id="rect1395"
         width="10.002384"
         height="6.6999998"
         x="83.132645"
         y="66.64502"
         ry="0.82926947" /><rect
         style="fill:#15c78e;fill-opacity:1;stroke:none;stroke-width:6.7;stroke-linecap:square;stroke-linejoin:round;stroke-dasharray:none;stop-color:#000000"
         id="rect1390"
         width="10.002384"
         height="6.6999998"
         x="71.073402"
         y="66.64502"
         ry="0.82926947" /></g></g></svg>
